<svg width="204" height="31" viewBox="0 0 204 31" fill="none" xmlns="http://www.w3.org/2000/svg">
<path d="M25.56 15.22V26.92C24.0933 28 22.5267 28.7933 20.86 29.3C19.2067 29.7933 17.4333 30.04 15.54 30.04C13.18 30.04 11.04 29.6733 9.12 28.94C7.21333 28.2067 5.58 27.1867 4.22 25.88C2.87333 24.5733 1.83333 23.0133 1.1 21.2C0.366667 19.3867 0 17.4067 0 15.26C0 13.0867 0.353333 11.0933 1.06 9.28C1.76667 7.46666 2.76667 5.90667 4.06 4.6C5.36667 3.29333 6.94667 2.28 8.8 1.56C10.6533 0.840001 12.7333 0.480001 15.04 0.480001C16.2133 0.480001 17.3067 0.573334 18.32 0.76C19.3467 0.946668 20.2933 1.20667 21.16 1.54C22.04 1.86 22.84 2.25333 23.56 2.72C24.28 3.18667 24.94 3.7 25.54 4.26L24 6.7C23.76 7.08667 23.4467 7.32667 23.06 7.42C22.6733 7.5 22.2533 7.4 21.8 7.12C21.36 6.86667 20.92 6.61333 20.48 6.36C20.04 6.10667 19.5467 5.88667 19 5.7C18.4667 5.51333 17.86 5.36 17.18 5.24C16.5133 5.12 15.74 5.06 14.86 5.06C13.4333 5.06 12.14 5.3 10.98 5.78C9.83333 6.26 8.85333 6.94667 8.04 7.84C7.22667 8.73333 6.6 9.80667 6.16 11.06C5.72 12.3133 5.5 13.7133 5.5 15.26C5.5 16.9133 5.73333 18.3933 6.2 19.7C6.68 20.9933 7.34667 22.0933 8.2 23C9.06667 23.8933 10.1067 24.58 11.32 25.06C12.5333 25.5267 13.8867 25.76 15.38 25.76C16.4467 25.76 17.4 25.6467 18.24 25.42C19.08 25.1933 19.9 24.8867 20.7 24.5V19.26H17.06C16.7133 19.26 16.44 19.1667 16.24 18.98C16.0533 18.78 15.96 18.54 15.96 18.26V15.22H25.56Z" fill="#F5F9FC"/>
<path d="M42.9491 17.1C42.9491 16.46 42.8557 15.86 42.6691 15.3C42.4957 14.7267 42.2291 14.2267 41.8691 13.8C41.5091 13.3733 41.0491 13.04 40.4891 12.8C39.9424 12.5467 39.3024 12.42 38.5691 12.42C37.1424 12.42 36.0157 12.8267 35.1891 13.64C34.3757 14.4533 33.8557 15.6067 33.6291 17.1H42.9491ZM33.5291 20.08C33.6091 21.1333 33.7957 22.0467 34.0891 22.82C34.3824 23.58 34.7691 24.2133 35.2491 24.72C35.7291 25.2133 36.2957 25.5867 36.9491 25.84C37.6157 26.08 38.3491 26.2 39.1491 26.2C39.9491 26.2 40.6357 26.1067 41.2091 25.92C41.7957 25.7333 42.3024 25.5267 42.7291 25.3C43.1691 25.0733 43.5491 24.8667 43.8691 24.68C44.2024 24.4933 44.5224 24.4 44.8291 24.4C45.2424 24.4 45.5491 24.5533 45.7491 24.86L47.1691 26.66C46.6224 27.3 46.0091 27.84 45.3291 28.28C44.6491 28.7067 43.9357 29.0533 43.1891 29.32C42.4557 29.5733 41.7024 29.7533 40.9291 29.86C40.1691 29.9667 39.4291 30.02 38.7091 30.02C37.2824 30.02 35.9557 29.7867 34.7291 29.32C33.5024 28.84 32.4357 28.14 31.5291 27.22C30.6224 26.2867 29.9091 25.14 29.3891 23.78C28.8691 22.4067 28.6091 20.82 28.6091 19.02C28.6091 17.62 28.8357 16.3067 29.2891 15.08C29.7424 13.84 30.3891 12.7667 31.2291 11.86C32.0824 10.94 33.1157 10.2133 34.3291 9.68C35.5557 9.14667 36.9357 8.88 38.4691 8.88C39.7624 8.88 40.9557 9.08667 42.0491 9.5C43.1424 9.91333 44.0824 10.52 44.8691 11.32C45.6557 12.1067 46.2691 13.08 46.7091 14.24C47.1624 15.3867 47.3891 16.7 47.3891 18.18C47.3891 18.9267 47.3091 19.4333 47.1491 19.7C46.9891 19.9533 46.6824 20.08 46.2291 20.08H33.5291Z" fill="#F5F9FC"/>
<path d="M63.9762 14.44C63.4162 13.76 62.8029 13.28 62.1362 13C61.4829 12.72 60.7762 12.58 60.0163 12.58C59.2696 12.58 58.5962 12.72 57.9963 13C57.3963 13.28 56.8829 13.7067 56.4562 14.28C56.0296 14.84 55.7029 15.56 55.4762 16.44C55.2496 17.3067 55.1362 18.3333 55.1362 19.52C55.1362 20.72 55.2296 21.74 55.4163 22.58C55.6163 23.4067 55.8963 24.0867 56.2563 24.62C56.6163 25.14 57.0563 25.52 57.5763 25.76C58.0963 25.9867 58.6763 26.1 59.3162 26.1C60.3429 26.1 61.2162 25.8867 61.9362 25.46C62.6562 25.0333 63.3363 24.4267 63.9762 23.64V14.44ZM68.9163 0V29.72H65.8962C65.2429 29.72 64.8296 29.42 64.6562 28.82L64.2363 26.84C63.4096 27.7867 62.4562 28.5533 61.3763 29.14C60.3096 29.7267 59.0629 30.02 57.6362 30.02C56.5163 30.02 55.4896 29.7867 54.5563 29.32C53.6229 28.8533 52.8162 28.18 52.1362 27.3C51.4696 26.4067 50.9496 25.3067 50.5762 24C50.2162 22.6933 50.0363 21.2 50.0363 19.52C50.0363 18 50.2429 16.5867 50.6562 15.28C51.0696 13.9733 51.6629 12.84 52.4362 11.88C53.2096 10.92 54.1362 10.1733 55.2163 9.64C56.2963 9.09333 57.5096 8.82 58.8563 8.82C60.0029 8.82 60.9829 9 61.7962 9.36C62.6096 9.72 63.3363 10.2067 63.9762 10.82V0H68.9163Z" fill="#F5F9FC"/>
<path d="M78.9116 9.2V29.72H73.9516V9.2H78.9116ZM79.5916 3.22C79.5916 3.64667 79.5049 4.04667 79.3316 4.42C79.1582 4.79333 78.9249 5.12 78.6316 5.4C78.3516 5.68 78.0182 5.90667 77.6316 6.08C77.2449 6.24 76.8316 6.32 76.3916 6.32C75.9649 6.32 75.5582 6.24 75.1716 6.08C74.7982 5.90667 74.4716 5.68 74.1916 5.4C73.9116 5.12 73.6849 4.79333 73.5116 4.42C73.3516 4.04667 73.2716 3.64667 73.2716 3.22C73.2716 2.78 73.3516 2.36667 73.5116 1.98C73.6849 1.59333 73.9116 1.26 74.1916 0.98C74.4716 0.7 74.7982 0.48 75.1716 0.320001C75.5582 0.146667 75.9649 0.0600004 76.3916 0.0600004C76.8316 0.0600004 77.2449 0.146667 77.6316 0.320001C78.0182 0.48 78.3516 0.7 78.6316 0.98C78.9249 1.26 79.1582 1.59333 79.3316 1.98C79.5049 2.36667 79.5916 2.78 79.5916 3.22Z" fill="#F5F9FC"/>
<path d="M88.5678 11.72C88.9811 11.3067 89.4145 10.9267 89.8678 10.58C90.3345 10.22 90.8211 9.92 91.3278 9.68C91.8478 9.42667 92.4011 9.23333 92.9878 9.1C93.5745 8.95333 94.2145 8.88 94.9078 8.88C96.0278 8.88 97.0211 9.07333 97.8878 9.46C98.7545 9.83333 99.4745 10.3667 100.048 11.06C100.634 11.74 101.074 12.56 101.368 13.52C101.674 14.4667 101.828 15.5133 101.828 16.66V29.72H96.8878V16.66C96.8878 15.4067 96.6011 14.44 96.0278 13.76C95.4545 13.0667 94.5811 12.72 93.4078 12.72C92.5545 12.72 91.7545 12.9133 91.0078 13.3C90.2611 13.6867 89.5545 14.2133 88.8878 14.88V29.72H83.9478V9.2H86.9678C87.6078 9.2 88.0278 9.5 88.2278 10.1L88.5678 11.72Z" fill="#F5F9FC"/>
<path d="M122.393 6.06C122.233 6.34 122.06 6.54667 121.873 6.68C121.7 6.8 121.48 6.86 121.213 6.86C120.933 6.86 120.627 6.76 120.293 6.56C119.973 6.34667 119.587 6.11333 119.133 5.86C118.68 5.60667 118.147 5.38 117.533 5.18C116.933 4.96667 116.22 4.86 115.393 4.86C114.647 4.86 113.993 4.95333 113.433 5.14C112.873 5.31333 112.4 5.56 112.013 5.88C111.64 6.2 111.36 6.58667 111.173 7.04C110.987 7.48 110.893 7.96667 110.893 8.5C110.893 9.18 111.08 9.74667 111.453 10.2C111.84 10.6533 112.347 11.04 112.973 11.36C113.6 11.68 114.313 11.9667 115.113 12.22C115.913 12.4733 116.733 12.7467 117.573 13.04C118.413 13.32 119.233 13.6533 120.033 14.04C120.833 14.4133 121.547 14.8933 122.173 15.48C122.8 16.0533 123.3 16.76 123.673 17.6C124.06 18.44 124.253 19.46 124.253 20.66C124.253 21.9667 124.027 23.1933 123.573 24.34C123.133 25.4733 122.48 26.4667 121.613 27.32C120.76 28.16 119.713 28.8267 118.473 29.32C117.233 29.8 115.813 30.04 114.213 30.04C113.293 30.04 112.387 29.9467 111.493 29.76C110.6 29.5867 109.74 29.3333 108.913 29C108.1 28.6667 107.333 28.2667 106.613 27.8C105.893 27.3333 105.253 26.8133 104.693 26.24L106.273 23.66C106.407 23.4733 106.58 23.32 106.793 23.2C107.007 23.0667 107.233 23 107.473 23C107.807 23 108.167 23.14 108.553 23.42C108.94 23.6867 109.4 23.9867 109.933 24.32C110.467 24.6533 111.087 24.96 111.793 25.24C112.513 25.5067 113.373 25.64 114.373 25.64C115.907 25.64 117.093 25.28 117.933 24.56C118.773 23.8267 119.193 22.78 119.193 21.42C119.193 20.66 119 20.04 118.613 19.56C118.24 19.08 117.74 18.68 117.113 18.36C116.487 18.0267 115.773 17.7467 114.973 17.52C114.173 17.2933 113.36 17.0467 112.533 16.78C111.707 16.5133 110.893 16.1933 110.093 15.82C109.293 15.4467 108.58 14.96 107.953 14.36C107.327 13.76 106.82 13.0133 106.433 12.12C106.06 11.2133 105.873 10.1 105.873 8.78C105.873 7.72667 106.08 6.7 106.493 5.7C106.92 4.7 107.533 3.81333 108.333 3.04C109.133 2.26667 110.12 1.64667 111.293 1.18C112.467 0.713334 113.813 0.480001 115.333 0.480001C117.04 0.480001 118.613 0.746668 120.053 1.28C121.493 1.81333 122.72 2.56 123.733 3.52L122.393 6.06Z" fill="#F5F9FC"/>
<path d="M138.733 20.96C137.306 21.0267 136.106 21.1533 135.133 21.34C134.16 21.5133 133.38 21.74 132.793 22.02C132.206 22.3 131.786 22.6267 131.533 23C131.28 23.3733 131.153 23.78 131.153 24.22C131.153 25.0867 131.406 25.7067 131.913 26.08C132.433 26.4533 133.106 26.64 133.933 26.64C134.946 26.64 135.82 26.46 136.553 26.1C137.3 25.7267 138.026 25.1667 138.733 24.42V20.96ZM127.413 12.06C129.773 9.9 132.613 8.82 135.933 8.82C137.133 8.82 138.206 9.02 139.153 9.42C140.1 9.80667 140.9 10.3533 141.553 11.06C142.206 11.7533 142.7 12.5867 143.033 13.56C143.38 14.5333 143.553 15.6 143.553 16.76V29.72H141.313C140.846 29.72 140.486 29.6533 140.233 29.52C139.98 29.3733 139.78 29.0867 139.633 28.66L139.193 27.18C138.673 27.6467 138.166 28.06 137.673 28.42C137.18 28.7667 136.666 29.06 136.133 29.3C135.6 29.54 135.026 29.72 134.413 29.84C133.813 29.9733 133.146 30.04 132.413 30.04C131.546 30.04 130.746 29.9267 130.013 29.7C129.28 29.46 128.646 29.1067 128.113 28.64C127.58 28.1733 127.166 27.5933 126.873 26.9C126.58 26.2067 126.433 25.4 126.433 24.48C126.433 23.96 126.52 23.4467 126.693 22.94C126.866 22.42 127.146 21.9267 127.533 21.46C127.933 20.9933 128.446 20.5533 129.073 20.14C129.7 19.7267 130.466 19.3667 131.373 19.06C132.293 18.7533 133.36 18.5067 134.573 18.32C135.786 18.12 137.173 18 138.733 17.96V16.76C138.733 15.3867 138.44 14.3733 137.853 13.72C137.266 13.0533 136.42 12.72 135.313 12.72C134.513 12.72 133.846 12.8133 133.313 13C132.793 13.1867 132.333 13.4 131.933 13.64C131.533 13.8667 131.166 14.0733 130.833 14.26C130.513 14.4467 130.153 14.54 129.753 14.54C129.406 14.54 129.113 14.4533 128.873 14.28C128.633 14.0933 128.44 13.88 128.293 13.64L127.413 12.06Z" fill="#F5F9FC"/>
<path d="M165.886 9.2V29.72H162.866C162.212 29.72 161.799 29.42 161.626 28.82L161.286 27.18C160.446 28.0333 159.519 28.7267 158.506 29.26C157.492 29.78 156.299 30.04 154.926 30.04C153.806 30.04 152.812 29.8533 151.946 29.48C151.092 29.0933 150.372 28.5533 149.786 27.86C149.199 27.1667 148.752 26.3467 148.446 25.4C148.152 24.44 148.006 23.3867 148.006 22.24V9.2H152.946V22.24C152.946 23.4933 153.232 24.4667 153.806 25.16C154.392 25.84 155.266 26.18 156.426 26.18C157.279 26.18 158.079 25.9933 158.826 25.62C159.572 25.2333 160.279 24.7067 160.946 24.04V9.2H165.886Z" fill="#F5F9FC"/>
<path d="M175.444 12.76C176.084 11.5333 176.844 10.5733 177.724 9.88C178.604 9.17333 179.644 8.82 180.844 8.82C181.79 8.82 182.55 9.02667 183.124 9.44L182.804 13.14C182.737 13.38 182.637 13.5533 182.504 13.66C182.384 13.7533 182.217 13.8 182.004 13.8C181.804 13.8 181.504 13.7667 181.104 13.7C180.717 13.6333 180.337 13.6 179.964 13.6C179.417 13.6 178.93 13.68 178.504 13.84C178.077 14 177.69 14.2333 177.344 14.54C177.01 14.8333 176.71 15.1933 176.444 15.62C176.19 16.0467 175.95 16.5333 175.724 17.08V29.72H170.784V9.2H173.684C174.19 9.2 174.544 9.29333 174.744 9.48C174.944 9.65333 175.077 9.97333 175.144 10.44L175.444 12.76Z" fill="#F5F9FC"/>
<path d="M201.807 6.06C201.647 6.34 201.474 6.54667 201.288 6.68C201.114 6.8 200.894 6.86 200.628 6.86C200.348 6.86 200.041 6.76 199.708 6.56C199.387 6.34667 199.001 6.11333 198.548 5.86C198.094 5.60667 197.561 5.38 196.947 5.18C196.347 4.96667 195.634 4.86 194.807 4.86C194.061 4.86 193.408 4.95333 192.848 5.14C192.288 5.31333 191.814 5.56 191.428 5.88C191.054 6.2 190.774 6.58667 190.587 7.04C190.401 7.48 190.307 7.96667 190.307 8.5C190.307 9.18 190.494 9.74667 190.867 10.2C191.254 10.6533 191.761 11.04 192.387 11.36C193.014 11.68 193.727 11.9667 194.527 12.22C195.327 12.4733 196.148 12.7467 196.988 13.04C197.827 13.32 198.647 13.6533 199.447 14.04C200.247 14.4133 200.961 14.8933 201.587 15.48C202.214 16.0533 202.714 16.76 203.087 17.6C203.474 18.44 203.667 19.46 203.667 20.66C203.667 21.9667 203.441 23.1933 202.988 24.34C202.548 25.4733 201.894 26.4667 201.027 27.32C200.174 28.16 199.128 28.8267 197.887 29.32C196.647 29.8 195.228 30.04 193.628 30.04C192.708 30.04 191.801 29.9467 190.908 29.76C190.014 29.5867 189.154 29.3333 188.327 29C187.514 28.6667 186.747 28.2667 186.027 27.8C185.307 27.3333 184.667 26.8133 184.107 26.24L185.688 23.66C185.821 23.4733 185.994 23.32 186.208 23.2C186.421 23.0667 186.647 23 186.887 23C187.221 23 187.581 23.14 187.967 23.42C188.354 23.6867 188.814 23.9867 189.348 24.32C189.881 24.6533 190.501 24.96 191.208 25.24C191.928 25.5067 192.788 25.64 193.788 25.64C195.321 25.64 196.508 25.28 197.348 24.56C198.188 23.8267 198.607 22.78 198.607 21.42C198.607 20.66 198.414 20.04 198.027 19.56C197.654 19.08 197.154 18.68 196.527 18.36C195.901 18.0267 195.188 17.7467 194.387 17.52C193.587 17.2933 192.774 17.0467 191.947 16.78C191.121 16.5133 190.308 16.1933 189.508 15.82C188.708 15.4467 187.994 14.96 187.367 14.36C186.741 13.76 186.234 13.0133 185.848 12.12C185.474 11.2133 185.288 10.1 185.288 8.78C185.288 7.72667 185.494 6.7 185.908 5.7C186.334 4.7 186.947 3.81333 187.747 3.04C188.548 2.26667 189.534 1.64667 190.708 1.18C191.881 0.713334 193.227 0.480001 194.747 0.480001C196.454 0.480001 198.027 0.746668 199.467 1.28C200.908 1.81333 202.134 2.56 203.148 3.52L201.807 6.06Z" fill="#F5F9FC"/>
</svg>
